<svg width="57" height="57" viewBox="0 0 57 57" fill="none" xmlns="http://www.w3.org/2000/svg">
<path d="M28.1707 0.0337524C43.6965 0.0337524 56.2972 12.6344 56.2972 28.1602C56.2972 43.6859 43.6965 56.2866 28.1707 56.2866C12.645 56.2866 0.044342 43.6859 0.044342 28.1602C0.044342 12.6344 12.645 0.0337524 28.1707 0.0337524Z" fill="black"/>
<path d="M35.0058 20.6305L32.774 17.2398L32.6512 18.6298L31.1797 18.2917C30.1383 18.0525 29.0458 18.3737 28.3104 19.1353L29.498 19.2616L29.2103 19.5168C29.1314 19.5868 29.0966 19.6928 29.1191 19.7947C29.1415 19.8967 29.2178 19.9792 29.3191 20.011C30.0425 20.2383 30.8102 20.2961 31.5605 20.1798L32.9869 19.9585C32.994 19.9574 32.9992 19.9514 32.9992 19.9444V19.7417C32.9992 19.5644 33.0797 19.3962 33.2189 19.2829L33.2449 19.2616L35.0058 20.6305Z" fill="white"/>
<path d="M27.9185 50.8185C28.186 49.1593 27.8137 48.4186 27.5688 47.9186C27.3239 47.4186 27.6462 47.2782 25.0023 44.4722C22.8454 42.1831 20.6689 40.1727 18.4944 38.0991C17.5003 37.1511 16.7497 35.9648 16.3096 34.646L14.7692 30.0284C14.7692 30.0284 13.7227 33.1778 15.459 36.8576C17.1953 40.5375 21.7145 44.7479 21.7145 44.7479C21.7145 44.7479 15.2887 43.1683 12.2835 37.7293C9.27827 32.2902 9.69367 22.9917 9.69367 22.9917L8.10776 23.2281C8.10776 23.2281 8.29541 20.4844 9.53656 17.7637C10.7777 15.0429 13.0724 12.3449 13.0724 12.3449L11.509 13.1203L9.69367 14.3071C9.69367 14.3071 10.521 12.0875 12.1299 10.2786C13.7388 8.46965 16.1293 7.07152 16.1293 7.07152L14.4744 6.3165L17.8691 4.69716C17.8691 4.69716 25.598 2.50817 29.4364 3.31197C33.2747 4.11576 34.9943 7.3468 34.9943 7.3468L33.2259 6.51411C30.4534 5.20862 27.2896 5.0921 24.4335 6.1903L22.1416 7.07153C22.1416 7.07153 26.8285 6.29198 30.2154 7.07153C33.6022 7.85108 35.689 10.1897 35.689 10.1897C35.689 10.1897 37.5606 7.25377 35.9974 5.40233C34.4343 3.5509 29.4364 2.78399 29.4364 2.78399L31.6513 2.68139C32.7798 2.62912 33.7404 2.71988 34.8408 2.98272C35.6825 3.18381 36.3768 3.43055 37.1597 3.80691C38.0476 4.23374 39.2889 4.92413 39.6924 5.40233C41.7057 7.78827 40.6153 12.1386 40.6153 12.1386C40.6153 12.1386 41.2379 11.6752 41.6642 10.8469C42.0905 10.0186 42.3206 8.82553 42.3206 8.82553C42.3206 8.82553 42.9642 9.34633 42.9642 11.149C42.9642 12.9518 42.3206 16.0364 42.3206 16.0364C42.3206 16.0364 43.7923 16.103 44.4945 17.6759C44.8105 18.3839 45.9071 20.4581 46.6276 21.8148C46.9896 22.4964 47.5432 23.0497 48.2159 23.4025L48.2343 23.4121C48.2343 23.4121 47.9116 23.6458 47.3332 23.7995C46.7548 23.9531 45.9206 24.0268 45.9206 24.0268C47.372 26.874 47.3926 30.2679 45.9759 33.1335L44.2154 36.6945L46.4891 34.9405L46.0222 37.9038C45.3013 42.4791 42.7481 46.5338 38.9836 49.0814L35.689 51.3111C35.689 51.3111 37.3763 49.1287 38.4184 47.1798C39.4605 45.2309 39.8574 43.5156 39.8574 43.5156C36.5194 47.4475 32.5712 50.7835 28.1731 53.388L27.7311 53.6498C27.7311 53.6498 27.6509 52.4776 27.9185 50.8185ZM35.4495 32.128C35.294 32.6334 35.4495 33.3829 35.4495 33.3829C35.4495 33.3829 37.0807 34.9776 37.7024 36.0401C38.3242 37.1026 37.9366 37.6327 37.9366 37.6327C37.9366 37.6327 39.1192 36.8892 39.6758 35.8268C40.2324 34.7643 40.1629 33.3829 40.1629 33.3829C40.1629 33.3829 40.6068 33.8283 40.8044 34.7607C40.9488 35.4415 40.6732 35.9749 40.8044 36.3536C41.1153 37.2511 41.4065 36.9725 41.4065 36.9725C41.4065 36.9725 42.6115 34.0658 42.8622 32.4876C43.1129 30.9094 42.4093 30.6597 42.4093 30.6597C42.4093 30.6597 41.6855 30.9382 41.154 30.6597C40.6225 30.3812 40.2832 29.5456 40.2832 29.5456C40.2832 29.5456 39.7847 30.2914 38.7317 30.7453C37.6787 31.1991 36.0712 31.3611 36.0712 31.3611C36.0712 31.3611 35.6049 31.6226 35.4495 32.128V32.128ZM27.7009 9.18787C27.7009 9.18787 29.502 10.2791 30.5272 11.0383C31.5524 11.7975 31.8016 12.2248 31.8016 12.2248C31.8016 12.2248 30.952 12.1757 30.2574 12.3652C29.5628 12.5547 29.0231 12.9829 29.0231 12.9829L25.9027 12.2248L23.3411 11.855C22.9132 11.7933 22.4776 11.8221 22.0609 11.9398L21.6753 12.0488C21.1537 12.1961 20.7336 12.5937 20.5475 13.1161C20.3614 13.6384 20.4324 14.2211 20.7379 14.6802L21.4025 15.6786C21.4025 15.6786 20.5981 13.6858 21.7806 13.4091C22.963 13.1324 26.1323 14.5719 26.1323 14.5719L24.5209 16.541C23.1713 18.19 22.4707 20.2989 22.5568 22.4526L22.6925 25.8438C22.6925 25.8438 21.7506 25.3302 21.4025 23.6453C21.0545 21.9605 21.3002 19.1045 21.3002 19.1045C21.3002 19.1045 20.2873 21.0132 20.3129 23.0864C20.3385 25.1596 21.4025 27.3974 21.4025 27.3974C21.4025 27.3974 22.2645 29.7645 26.2542 33.3824C30.2439 37.0003 31.9558 41.3637 31.9558 41.3637L31.1199 37.9563C30.9106 37.1033 30.5373 36.3021 30.0219 35.6001L27.6151 32.3212C27.6151 32.3212 24.763 29.7785 24.077 26.627C23.3911 23.4755 24.8714 19.7153 24.8714 19.7153C24.8714 19.7153 24.9346 23.4236 25.7922 25.1516C26.6499 26.8795 28.3021 26.627 28.3021 26.627C28.3021 26.627 27.7026 26.1955 27.3692 25.5194C27.0357 24.8432 26.9683 23.9224 26.9683 23.9224C26.9683 23.9224 27.628 24.775 28.171 25.0591C28.7141 25.3433 29.1404 25.0591 29.1404 25.0591L31.6841 24.1308C32.06 23.9936 32.4609 23.9445 32.8576 23.9871L34.2635 24.138C34.2635 24.138 31.1753 25.5686 31.1753 27.1267C31.1753 28.6847 34.2635 30.3703 34.2635 30.3703C34.2635 30.3703 37.2718 30.8234 39.0226 29.3625C40.7734 27.9015 39.2938 26.1147 39.2938 26.1147L38.3391 25.7192C37.4696 25.3589 36.7963 24.626 36.4959 23.7126L36.4738 23.6453L36.9692 24.0569C36.9692 24.0569 37.3764 23.5937 37.9766 23.5937C38.5768 23.5937 39.37 24.0569 39.37 24.0569C39.37 24.0569 40.4983 24.1511 41.2318 24.0041C41.9654 23.8571 42.3043 23.469 42.3043 23.469C42.3043 23.469 42.5901 23.525 42.6853 23.7994C42.7806 24.0738 42.6853 24.5665 42.6853 24.5665C42.6853 24.5665 42.5301 24.787 42.0537 25.3554C41.5774 25.9237 40.78 26.8399 40.78 26.8399V28.8781C40.78 28.8781 41.185 29.4798 41.8329 29.2296C42.4807 28.9793 43.3713 27.8771 43.3713 27.8771C43.3713 27.8771 43.4475 26.2793 43.3713 25.2599C43.2951 24.2405 43.0664 23.7994 43.0664 23.7994C43.0664 23.7994 42.3848 22.5125 40.2111 21.1139C38.0375 19.7153 37.8457 17.1951 37.8457 17.1951L38.5316 18.4295C38.5316 18.4295 39.3934 18.2305 39.9618 18.4295C40.5302 18.6285 40.8052 19.2256 40.8052 19.2256L40.6275 19.4486C40.6275 19.4486 40.4887 19.7337 40.6678 20.0525C40.8469 20.3714 41.3438 20.7241 41.3438 20.7241L41.2286 18.7938C41.1735 17.8207 40.7662 16.904 40.087 16.2242C39.589 15.7258 39.0295 15.1684 38.7255 14.5719C37.5503 12.266 36.6429 11.5004 36.6429 11.5004C36.6429 11.5004 36.3988 11.971 36.1305 12.3652C35.8623 12.7594 35.5698 13.0771 35.5698 13.0771L35.4952 13.0118C33.3688 11.151 30.8243 9.86579 28.0925 9.27287L27.7009 9.18786V9.18787ZM27.5958 42.6041C29.4894 43.9412 30.3985 46.331 29.8899 48.6348C29.8899 48.6348 31.3449 46.9949 30.5225 44.5193C29.7002 42.0437 26.6005 38.7323 26.6005 38.7323C26.6005 38.7323 24.5181 37.026 23.2344 35.0366C21.9508 33.0473 21.4659 30.775 21.4659 30.775C21.4659 30.775 21.0714 32.355 21.9238 34.3443C22.7763 36.3337 24.8756 38.7323 24.8756 38.7323C24.8756 38.7323 21.1503 36.4157 19.3597 33.5892C17.5692 30.7627 17.7133 27.4262 17.7133 27.4262C17.7133 27.4262 17.1624 30.3986 17.8895 32.745C18.6166 35.0914 20.6216 36.812 20.6216 36.812L26.8393 42.0699L27.5958 42.6041ZM32.0454 34.1705L32.129 35.6024C32.1797 36.4695 32.3997 37.3173 32.7758 38.0951L33.0012 38.561C33.5052 39.6031 33.8492 40.7191 34.021 41.8694C34.1204 42.5344 34.0926 43.2129 33.9393 43.867L33.0884 47.4977C33.0884 47.4977 35.0139 45.596 35.6557 43.925C36.2975 42.2539 35.6557 40.8135 35.6557 40.8135L34.5853 38.6531L32.0454 34.1705ZM12.553 20.5365C12.553 20.5365 11.3546 23.3571 11.5789 27.4676C11.8033 31.578 13.4504 36.9783 13.4504 36.9783C13.4504 36.9783 12.2711 31.2244 12.7268 26.49C13.1825 21.7556 15.2733 18.0407 15.2733 18.0407L13.0859 18.4445C13.0859 18.4445 13.0992 17.111 14.1594 14.962C15.2196 12.813 17.3267 9.84864 17.3267 9.84864L15.6089 11.4215C13.9531 12.9376 12.6911 14.8546 11.9373 16.999L10.618 20.7521L12.553 20.5365Z" fill="white"/>
</svg>
